<?xml version="1.0" encoding="utf-8"?>
<!-- Generator: Adobe Illustrator 24.2.3, SVG Export Plug-In . SVG Version: 6.00 Build 0)  -->
<svg version="1.1" id="Capa_1" xmlns="http://www.w3.org/2000/svg" xmlns:xlink="http://www.w3.org/1999/xlink" x="0px" y="0px"
	 viewBox="0 0 98.1 98.1" style="enable-background:new 0 0 98.1 98.1;" xml:space="preserve">
<style type="text/css">
	.st0{fill:#FFFFFF;}
</style>
<g>
	<path class="st0" d="M98,17.5l-19.6-0.1c0,0.7,0,1.6,0,2.1c1.7,0,5.9,0.8,7.3,4.3L66.9,67.2c-0.9-2.1-9.6-21.5-10.6-24l9.1-18.8
		c1.9-2.9,5.5-4.7,8.9-4.8l0-2l-18.8,0c0,0.5,0,1.5-0.1,2.1c5.3,0.1,7.2,1.3,5.9,4.5c-2.1,4.8-6.5,13.8-7.4,15.5
		c-2.7-5.6-4.4-10-7.3-16.1c-1.3-2.8,1.5-3.9,4.5-4v-2l-21.8-0.1c0,0.9,0,1.5,0,2.1c3,0,7,0.4,8.6,3c2.1,4.1,9,20.2,11.1,24.5
		c-2.7,5.2-9.2,17.3-11.5,21.9C34,61.6,21.7,32.3,18.2,24.8c-1.3-3.2,3.7-5.1,6.6-5.2l0-2.1L0,17.4c0,0.6,0,1.7,0,2.2
		c4,0,9.9,6.6,11.6,10.7c7.2,16.8,14.7,33.5,21.9,50.3c0,0,2.3,0.1,2.3,0C40.5,71,46.1,60.8,51,51.1l12.6,29.6c0,0,2.1,0,2.1,0
		c8-18.2,19.9-46.1,23.8-54.9c1.6-3.8,4.2-6.1,8.5-6.2L98,17.5L98,17.5z"/>
</g>
</svg>
